<?xml version="1.0" encoding="utf-8"?>
<!-- Generator: Adobe Illustrator 23.0.0, SVG Export Plug-In . SVG Version: 6.00 Build 0)  -->
<svg version="1.1" id="Layer_1" xmlns="http://www.w3.org/2000/svg" xmlns:xlink="http://www.w3.org/1999/xlink" x="0px" y="0px"
	 viewBox="0 0 612 262" style="enable-background:new 0 0 612 262;" xml:space="preserve">
<style type="text/css">
	.st0{fill:transparent;}
	.st1{fill:black;}
	.st2{fill:red;}
</style>
<g>
	<path opacity="0" d="M-0.92-1.92c202.62,0,405.25,0.01,607.87-0.09c3.44,0,4.22,0.77,4.22,4.21c-0.11,87.63-0.09,175.25-0.09,262.88
		c-1.59,0.84-3.31,0.42-4.96,0.42c-200.61,0.02-401.22,0.02-601.83,0.01c-6.34,0-5.65,0.66-5.65-5.6
		C-1.37,174.29-1.37,88.66-1.34,3.04C-1.34,1.39-1.76-0.33-0.92-1.92z"/>
	<path class="st0" d="M-0.92-1.92c0,87.32,0.03,174.64-0.1,261.95c-0.01,4.16,1.01,5.15,5.15,5.15
		c202.32-0.11,404.63-0.1,606.95-0.1c-0.2,0.28,0.46,0.96-0.46,0.93c-1.22-0.04-2.45-0.01-3.67-0.01
		c-201.55,0-403.11-0.01-604.66,0.09c-3.44,0-4.22-0.77-4.22-4.21C-1.81,175.32-1.84,88.76-1.78,2.21C-1.78,0.86-2.84-0.9-0.92-1.92
		z"/>
	<path class="st1" d="M327.16,161.4c-8.56,0-17.12-0.2-25.67,0.09c-3.59,0.12-4.52-1.06-4.18-4.38c0.27-2.57,0.27-5.21,0-7.78
		c-0.32-2.91,0.77-3.6,3.54-3.58c16.5,0.11,33.01-0.13,49.5,0.18c4.52,0.08,11.44-4.94,12.11-8.55c1.27-6.94-1.96-14.05-7.75-16.19
		c-1.09-0.4-2.42-0.22-3.64-0.22c-7.64-0.01-15.28-0.01-22.92,0c-17.47,0.01-28.41-10.58-30.52-27.2
		c-1.02-8.04,3.03-15.33,8.83-21.32c5.97-6.17,13.44-8.17,21.65-8.2c15.28-0.06,30.56-0.03,45.84,0.01c0.96,0,2.33-0.68,2.84,0.53
		c0.52,1.23-0.94,1.73-1.62,2.44c-2.06,2.16-4.47,4.05-6.26,6.4c-4.25,5.57-9.48,7.62-16.59,7.09c-8.97-0.66-18.02,0-27.03-0.21
		c-6.99-0.16-10.44,4.42-11.41,9.79c-1.2,6.66,2.79,12.88,8.9,14.19c9.48,2.04,19.11,0.74,28.66,0.81
		c5.88,0.04,10.76,2.01,15.54,5.08c9.3,5.97,13.84,18.78,10.94,30.23c-2.89,11.41-16.22,21.76-27.37,20.88
		C342.79,160.9,334.96,161.4,327.16,161.4z"/>
	<path class="st1" d="M464.28,112.76c0,14.98-0.08,29.96,0.07,44.94c0.03,2.95-0.67,4.03-3.73,3.76c-3.77-0.34-8.86,1.21-11.05-0.71
		c-2.57-2.25-0.79-7.45-0.85-11.35c-0.12-8.41-0.11-16.81,0.01-25.22c0.04-2.42-0.4-3.37-3.17-3.46c-14.45-0.43-28.88-0.44-43.33,0
		c-2.75,0.08-3.18,1.01-3.16,3.43c0.11,11.16-0.05,22.32,0.11,33.47c0.04,2.91-0.61,4.1-3.73,3.83c-3.78-0.32-8.88,1.27-11.06-0.64
		c-2.55-2.23-0.78-7.44-0.83-11.34c-0.12-8.56-0.04-17.12-0.03-25.68c0-1.49-0.21-2.94,1.1-4.22c4.52-4.39,8.91-8.92,13.4-13.33
		c1.64-1.61,3.78-1.59,5.94-1.58c13.6,0.04,27.21-0.09,40.81,0.11c3.27,0.05,4.03-0.87,3.97-4.04c-0.21-11,0.02-22.01-0.15-33.01
		c-0.04-2.87,0.79-3.8,3.61-3.52c3.9,0.4,8.98-1.61,11.42,0.84c2.23,2.23,0.59,7.26,0.61,11.05
		C464.32,88.31,464.28,100.53,464.28,112.76z"/>
	<path class="st1" d="M5.59,160.35c4.69-4.5,9.42-8.95,14.04-13.52c1.18-1.16,2.47-0.95,3.79-0.96c4.58-0.03,9.17,0.1,13.75-0.05
		c6.2-0.2,11.96-1.88,17.32-5.14c13.85-8.41,18.98-26.39,12.88-40.06c-5.15-11.54-13.68-18.54-26.61-20.17
		c-5.78-0.73-11.5-0.52-17.25-0.63c-1.37-0.03-2.65,0.15-3.78-0.96c-4.63-4.58-9.33-9.1-13.75-14.17c12.16,0.15,24.05-1,36.01,0.26
		c16.4,1.73,28.58,9.95,36.7,23.65c9.35,15.77,9.36,32.23,0.29,48.38c-7.61,13.56-19.82,20.66-34.53,24.13
		c-0.29,0.07-0.59,0.17-0.89,0.17c-12.45,0.01-24.9,0.01-37.35,0.01C5.99,160.96,5.79,160.66,5.59,160.35z"/>
	<path class="st1" d="M142.29,80.3c-13.29-1.75-28.4,5.87-34.33,20.76c-6.63,16.64,2.38,33.43,13.14,39.74
		c15.91,9.33,34.83,5.99,46.37-11.29c2.02,4.07,3.75,8.16,6.02,11.94c1.58,2.63,1.08,4.06-0.98,6.14
		c-16.1,16.27-41.03,18.13-59.51,6.41c-11.29-7.16-19.13-17.38-21.85-30.32c-4.09-19.45,2.46-38.49,20.84-51.23
		c5.87-4.07,12.31-6.57,19.42-7.4c2.61-0.3,4.21,0.62,5.36,3.05C138.61,72.01,140.78,75.76,142.29,80.3z"/>
	<path class="st1" d="M209.34,160.48c-4.95-9.9-9.86-19.78-14.83-29.62c-4.84-9.59-9.66-19.19-14.73-28.66
		c-0.99-1.85-0.02-2.8,0.57-4c2.35-4.8,4.81-9.55,7.25-14.37c1.03,0.22,1.64,1.08,2.08,1.99c3.22,6.56,6.6,13.05,9.54,19.73
		c2.72,6.17,6.81,11.63,9.05,18.02c0.81,2.32,1.86,0.95,2.43,0.07c1.2-1.86,2.18-3.87,3.18-5.86c5.77-11.58,11.51-23.17,17.26-34.76
		c2.65-5.33,5.41-10.61,7.89-16.02c0.98-2.14,2.24-2.88,4.52-2.8c3.97,0.15,7.95,0.12,11.91,0c2.31-0.07,2.52,0.5,1.47,2.51
		c-8.69,16.74-16.78,33.79-25.57,50.49c-6.81,12.93-12.97,26.21-19.43,39.33C211.28,157.84,210.97,159.39,209.34,160.48z"/>
	<path class="st1" d="M293.53,112.88c0,14.81,0.01,29.62-0.02,44.43c0,0.97,0.64,2.33-0.51,2.86c-1.24,0.58-1.72-0.9-2.45-1.55
		c-7.53-6.78-15.35-13.26-22.7-20.2c-8.73-8.25-18-15.9-26.58-24.29c-1.33-1.3-2.34-2.15-1.24-4.15c2.01-3.67,3.94-7.41,5.64-11.24
		c1.09-2.46,1.85-2.99,4.06-0.9c7.93,7.5,16.05,14.82,24.12,22.19c0.85,0.77,1.42,2.34,2.87,1.81c1.57-0.58,1.32-2.17,1.32-3.53
		c-0.01-16.64,0.11-33.29-0.1-49.93c-0.04-3.49,0.9-4.59,4.29-4.2c2.41,0.28,4.9,0.26,7.32,0c3.42-0.36,4.08,1.17,4.05,4.26
		C293.45,83.25,293.52,98.07,293.53,112.88z"/>
	<path class="st1" d="M556.95,112.6c0-14.68,0.15-29.35-0.1-44.02c-0.06-3.75,1.13-4.47,4.57-4.42c13.14,0.19,26.29,0.15,39.44,0.01
		c2.83-0.03,4.15,0.49,3.86,3.68c-0.34,3.77,1.21,8.71-0.67,11.08c-2,2.52-7.13,0.66-10.89,0.77c-5.35,0.16-10.71,0.26-16.05-0.04
		c-3.7-0.21-4.67,1.05-4.65,4.68c0.14,24.15-0.04,48.31,0.13,72.46c0.03,3.75-0.77,5.22-4.69,4.72c-3.44-0.44-8,0.94-10.15-0.82
		c-2.28-1.87-0.71-6.58-0.73-10.04c-0.08-12.69-0.03-25.38-0.03-38.06C556.97,112.6,556.96,112.6,556.95,112.6z"/>
	<path class="st1" d="M519.76,112.81c9.78,0,19.56,0.09,29.34-0.06c2.64-0.04,3.44,0.76,3.26,3.33c-0.21,3.04-0.22,6.12-0.01,9.16
		c0.21,3.06-1.03,3.96-3.98,3.93c-13.45-0.12-26.9,0.08-40.35-0.15c-3.93-0.07-5.56,0.61-5.33,5.07c0.43,8.08,0.03,16.2,0.17,24.29
		c0.04,2.39-0.62,3.21-3.04,3.05c-3.2-0.2-6.43-0.22-9.62,0c-2.54,0.17-2.99-0.87-2.97-3.14c0.09-14.06,0.15-28.12-0.04-42.18
		c-0.04-3.1,1.14-3.4,3.69-3.37C500.5,112.88,510.13,112.81,519.76,112.81z"/>
	<path class="st2" d="M469.13,65.37c4.65,4.79,9.33,9.57,13.95,14.39c1.25,1.3,1.25,3.01,1.25,4.72
		c-0.02,18.95-0.03,37.89,0.03,56.84c0.01,2.77-0.99,4.67-3.16,6.47c-4.54,3.77-8.77,7.89-12.89,11.64c0-30.62,0-61.97,0-93.31
		C468.59,65.86,468.86,65.61,469.13,65.37z"/>
	<path class="st2" d="M179.42,142.49c-13.16-26.27-25.99-51.88-39.19-78.23c5.6,0,10.81-0.15,16.01,0.07
		c2.22,0.09,2.71,2.47,3.54,4.09c3.82,7.47,7.55,14.98,11.3,22.48c4.79,9.58,9.34,19.3,14.48,28.69c2.06,3.77,2.58,7.03,0.58,10.71
		C184.01,134.22,181.84,138.11,179.42,142.49z"/>
	<path class="st1" d="M487.49,64.23c21.55,0,41.83,0.04,62.11-0.05c2.32-0.01,2.89,0.84,2.74,2.93c-0.29,4.08,1.63,9.31-0.72,11.94
		c-2.2,2.47-7.49,0.61-11.42,0.65c-11.26,0.12-22.53-0.09-33.79,0.18c-2.01,0.05-3.3-0.33-4.59-1.6
		C497.35,73.89,492.87,69.51,487.49,64.23z"/>
	<path class="st2" d="M236.72,118.93c0,13.11-0.08,26.23,0.07,39.34c0.03,2.71-0.89,3.52-3.36,3.14c-0.45-0.07-0.91-0.01-1.37-0.01
		c-10.85,0.01-11.1,0-10.87-3.32c0.29-4.29-0.95-8.6,1.38-12.89c4.7-8.7,8.86-17.7,13.24-26.57
		C236.11,118.72,236.42,118.83,236.72,118.93z"/>
</g>
</svg>
